HIERARCHY
ROOT Hips
{
	OFFSET -0.001795 -0.223333 0.028219
	CHANNELS 6 Xposition Yposition Zposition Zrotation Yrotation Xrotation 
	JOINT LeftUpLeg
	{
		OFFSET 0.069520 -0.091406 -0.006815
		CHANNELS 3 Zrotation Yrotation Xrotation
		JOINT LeftLeg
		{
			OFFSET 0.034277 -0.375199 -0.004496
			CHANNELS 3 Zrotation Yrotation Xrotation
			JOINT LeftFoot
			{
				OFFSET -0.013596 -0.397961 -0.043693
				CHANNELS 3 Zrotation Yrotation Xrotation
				JOINT LeftToe
				{
					OFFSET 0.026358 -0.055791 0.119288
					CHANNELS 3 Zrotation Yrotation Xrotation
					End Site
					{
						OFFSET 0.000000 0.000000 0.000000
					}
				}
			}
		}
	}
	JOINT RightUpLeg
	{
		OFFSET -0.067670 -0.090522 -0.004320
		CHANNELS 3 Zrotation Yrotation Xrotation
		JOINT RightLeg
		{
			OFFSET -0.038290 -0.382569 -0.008850
			CHANNELS 3 Zrotation Yrotation Xrotation
			JOINT RightFoot
			{
				OFFSET 0.015774 -0.398415 -0.042312
				CHANNELS 3 Zrotation Yrotation Xrotation
				JOINT RightToe
				{
					OFFSET -0.025372 -0.048144 0.123348
					CHANNELS 3 Zrotation Yrotation Xrotation
					End Site
					{
						OFFSET 0.000000 0.000000 0.000000
					}
				}
			}
		}
	}
	JOINT Spine
	{
		OFFSET -0.002533 0.108963 -0.026696
		CHANNELS 3 Zrotation Yrotation Xrotation
		JOINT Spine1
		{
			OFFSET 0.005487 0.135180 0.001092
			CHANNELS 3 Zrotation Yrotation Xrotation
			JOINT Spine2
			{
				OFFSET 0.001457 0.052922 0.025425
				CHANNELS 3 Zrotation Yrotation Xrotation
				JOINT Neck
				{
					OFFSET -0.002778 0.213870 -0.042857
					CHANNELS 3 Zrotation Yrotation Xrotation
					JOINT Head
					{
						OFFSET 0.005152 0.064970 0.051349
						CHANNELS 3 Zrotation Yrotation Xrotation
						End Site
						{
							OFFSET 0.000000 0.000000 0.000000
						}
					}
				}
				JOINT LeftShoulder
				{
					OFFSET 0.078845 0.121749 -0.034090
					CHANNELS 3 Zrotation Yrotation Xrotation
					JOINT LeftArm
					{
						OFFSET 0.090977 0.030469 -0.008868
						CHANNELS 3 Zrotation Yrotation Xrotation
						JOINT LeftForeArm
						{
							OFFSET 0.259612 -0.012772 -0.027456
							CHANNELS 3 Zrotation Yrotation Xrotation
							JOINT LeftHand
							{
								OFFSET 0.249234 0.008986 -0.001171
								CHANNELS 3 Zrotation Yrotation Xrotation
								End Site
								{
									OFFSET 0.000000 0.000000 0.000000
								}
							}
						}
					}
				}
				JOINT RightShoulder
				{
					OFFSET -0.081759 0.118833 -0.038615
					CHANNELS 3 Zrotation Yrotation Xrotation
					JOINT RightArm
					{
						OFFSET -0.096012 0.032551 -0.009143
						CHANNELS 3 Zrotation Yrotation Xrotation
						JOINT RightForeArm
						{
							OFFSET -0.253742 -0.013329 -0.021401
							CHANNELS 3 Zrotation Yrotation Xrotation
							JOINT RightHand
							{
								OFFSET -0.255298 0.007772 -0.005559
								CHANNELS 3 Zrotation Yrotation Xrotation
								End Site
								{
									OFFSET 0.000000 0.000000 0.000000
								}
							}
						}
					}
				}
			}
		}
	}
}
MOTION
Frames: 13
Frame Time: 0.050000
0.048399 0.947739 0.018800 -3.909908 0.693336 7.394661 12.146624 -0.476400 4.663544 -5.984017 0.440562 -10.128846 10.858815 21.378180 22.656252 0.000000 0.000000 0.000000 -1.691245 0.779470 -8.185930 3.193256 -0.344636 -0.856403 -1.712814 -8.065836 11.740124 0.000000 0.000000 0.000000 0.270712 -0.351292 7.388909 7.629684 -1.007199 -25.814014 -2.756040 -18.638148 27.496460 -2.828307 0.231624 -28.142158 0.000000 0.000000 0.000000 -17.645358 -7.016349 7.002942 -61.999251 -31.121114 8.298498 -26.718075 -62.826357 25.535708 0.000000 0.000000 0.000000 6.440581 6.360391 0.343953 62.758026 6.641335 -6.678348 2.986647 39.992818 0.814858 0.000000 0.000000 0.000000 
0.048654 0.947525 0.019381 -3.895143 0.678119 7.413277 12.119808 -0.475120 4.705980 -6.000254 0.440453 -10.162292 10.874688 21.396655 22.613534 0.000000 0.000000 0.000000 -1.447650 0.787098 -8.182944 2.704179 -0.296113 -0.820308 -1.731799 -8.074338 11.617740 0.000000 0.000000 0.000000 0.197785 -0.337260 7.240928 7.814478 -1.065495 -25.618937 -2.734321 -18.025346 27.250871 -2.280526 0.022881 -27.561945 0.000000 0.000000 0.000000 -17.507456 -6.452438 6.521199 -61.016911 -29.511970 7.029821 -23.599921 -60.607227 22.228245 0.000000 0.000000 0.000000 6.539327 5.980636 0.244747 62.987891 5.558828 -7.195908 3.596072 41.770368 1.111402 0.000000 0.000000 0.000000 
0.049245 0.947664 0.019533 -3.810490 0.193356 7.464289 11.836723 -0.434182 4.672659 -5.902430 0.451834 -9.978132 11.131984 21.670681 22.769213 0.000000 0.000000 0.000000 -1.483899 0.820111 -8.556120 2.471024 -0.261783 -0.318503 -1.555017 -7.767052 11.491223 0.000000 0.000000 0.000000 0.146526 -0.333973 7.325918 7.951293 -1.095719 -25.635476 -2.844461 -17.475648 27.479946 -1.682824 -0.284860 -27.384926 0.000000 0.000000 0.000000 -17.705352 -5.988736 6.266767 -60.056760 -28.383561 6.033443 -17.318606 -56.432234 16.485799 0.000000 0.000000 0.000000 7.160574 5.288757 -0.150049 63.060146 4.577545 -7.642707 4.569970 43.297956 1.511407 0.000000 0.000000 0.000000 
0.050041 0.947561 0.019147 -3.738307 -0.508632 7.515115 11.537765 -0.385545 4.697425 -5.854094 0.467394 -9.865797 11.515577 22.083352 22.950029 0.000000 0.000000 0.000000 -1.375625 0.850956 -8.833951 1.957735 -0.201643 -0.084954 -1.271139 -7.276213 11.348339 0.000000 0.000000 0.000000 0.070134 -0.326038 7.386870 8.201454 -1.161595 -25.560104 -2.905390 -16.765821 27.539741 -0.770503 -0.753072 -27.150310 0.000000 0.000000 0.000000 -17.820100 -5.474933 5.968793 -58.672615 -26.979338 4.829865 -11.724097 -51.181002 11.536410 0.000000 0.000000 0.000000 7.571496 4.493083 -0.539090 63.074200 3.342841 -8.228239 6.612282 45.543628 2.385285 0.000000 0.000000 0.000000 
0.050994 0.947674 0.018262 -3.606772 -1.030467 7.798866 11.308508 -0.354692 4.536442 -5.999210 0.478946 -10.021640 11.780012 22.354628 23.210121 0.000000 0.000000 0.000000 -1.449577 0.926560 -9.673932 1.639894 -0.148498 0.653006 -1.101663 -6.991174 11.245836 0.000000 0.000000 0.000000 -0.226606 -0.301718 7.574987 8.905070 -1.305153 -25.651255 -3.336582 -16.741900 27.709777 -0.590721 -0.917340 -26.872128 0.000000 0.000000 0.000000 -18.614334 -4.673083 5.765310 -57.192721 -25.972639 3.823587 -7.434979 -45.027954 7.783137 0.000000 0.000000 0.000000 7.655343 4.105780 -0.766336 63.399095 2.136368 -8.955391 9.705864 48.196460 3.732835 0.000000 0.000000 0.000000 
0.051974 0.947389 0.016891 -3.589119 -1.842439 8.017683 11.224184 -0.323005 4.504519 -6.285379 0.499997 -10.205232 12.226462 22.823078 23.457753 0.000000 0.000000 0.000000 -1.439429 1.002097 -10.448091 1.364124 -0.098089 1.288746 -0.797552 -6.461910 11.081152 0.000000 0.000000 0.000000 -0.423685 -0.283373 7.722870 9.418632 -1.391211 -25.873372 -3.664057 -16.479439 28.289985 -0.000946 -1.299216 -26.892340 0.000000 0.000000 0.000000 -19.258494 -4.070572 5.658828 -55.547702 -25.466471 3.043694 -4.748441 -40.519319 5.694604 0.000000 0.000000 0.000000 7.977878 3.609622 -1.090643 63.929142 1.204657 -9.617676 13.083328 50.779496 5.417217 0.000000 0.000000 0.000000 
0.052838 0.947623 0.015336 -3.528216 -2.345752 8.282678 11.030231 -0.297138 4.167748 -6.335046 0.513404 -10.112752 12.519958 23.125515 23.674189 0.000000 0.000000 0.000000 -1.519462 1.056015 -11.034222 1.216093 -0.072745 1.524653 -0.578175 -6.136470 11.177129 0.000000 0.000000 0.000000 -0.627345 -0.263499 7.847619 9.999314 -1.531724 -25.679812 -4.010944 -16.251388 28.172662 -0.295901 -1.145219 -26.720564 0.000000 0.000000 0.000000 -19.615282 -3.621506 5.491032 -54.380296 -24.846904 2.469098 -3.143122 -38.503068 4.698193 0.000000 0.000000 0.000000 8.266947 3.183746 -1.361206 64.842813 0.082639 -10.405109 15.924791 53.507238 7.084889 0.000000 0.000000 0.000000 
0.053555 0.947616 0.013928 -3.382554 -2.758983 8.245410 11.010747 -0.279346 3.980039 -6.793369 0.543247 -9.734859 12.729458 23.350433 23.720283 0.000000 0.000000 0.000000 -1.675510 1.081717 -11.377211 1.083771 -0.043178 1.948837 -0.427811 -5.873712 11.099625 0.000000 0.000000 0.000000 -1.044665 -0.221018 7.995065 10.102117 -1.565744 -25.601272 -4.189388 -16.393322 28.349589 -0.570692 -1.059261 -26.613571 0.000000 0.000000 0.000000 -19.913150 -3.347432 5.487736 -53.732354 -24.991303 2.369238 -1.456376 -38.310079 4.107647 0.000000 0.000000 0.000000 8.544241 2.898202 -1.611621 65.174196 -0.891595 -11.046773 18.483044 55.063683 8.516616 0.000000 0.000000 0.000000 
0.054207 0.947872 0.012803 -3.161512 -2.823522 8.065782 10.913992 -0.266796 4.056931 -7.130435 0.557253 -9.667009 12.685529 23.293702 23.755408 0.000000 0.000000 0.000000 -1.798436 1.046059 -11.065727 0.805523 -0.024003 1.584567 -0.368893 -5.802406 11.202166 0.000000 0.000000 0.000000 -1.399437 -0.181700 7.979916 9.924261 -1.550746 -25.421672 -4.286698 -16.364879 28.385002 -1.202420 -0.699085 -26.673362 0.000000 0.000000 0.000000 -19.962401 -3.322222 5.480415 -53.435420 -25.098735 2.357040 -0.641998 -40.635504 4.234741 0.000000 0.000000 0.000000 8.876947 2.865894 -1.722489 65.546995 -1.420638 -11.386240 18.236575 55.596600 8.492114 0.000000 0.000000 0.000000 
0.055037 0.948173 0.011869 -3.051418 -2.723850 7.711574 10.989083 -0.265859 4.307798 -7.517869 0.569768 -9.594385 12.546088 23.141364 23.690117 0.000000 0.000000 0.000000 -2.010504 0.988863 -10.566701 0.905145 -0.045521 1.285410 -0.366825 -5.830426 11.345372 0.000000 0.000000 0.000000 -1.554089 -0.174317 8.278179 9.603872 -1.475993 -25.504803 -4.375923 -16.381106 28.421766 -1.802382 -0.352026 -26.754606 0.000000 0.000000 0.000000 -20.108761 -3.691251 5.695102 -53.394385 -25.787753 2.685340 -0.042468 -44.824202 4.706964 0.000000 0.000000 0.000000 9.186310 3.155818 -1.677724 65.387054 -1.122205 -11.124318 16.480217 54.444977 7.439478 0.000000 0.000000 0.000000 
0.055949 0.948240 0.010920 -2.926865 -2.391697 7.448827 11.243188 -0.287086 4.424535 -8.173557 0.584147 -9.547030 12.286072 22.863264 23.497238 0.000000 0.000000 0.000000 -2.124566 0.940065 -10.106715 0.808995 -0.047964 0.932688 -0.483823 -6.045280 11.453465 0.000000 0.000000 0.000000 -1.648539 -0.166206 8.267950 8.977382 -1.335081 -25.551224 -4.187061 -16.694638 28.518986 -2.591544 0.078897 -27.152158 0.000000 0.000000 0.000000 -20.533714 -4.274549 6.180161 -54.175900 -27.128797 3.412031 0.350223 -48.934561 5.345119 0.000000 0.000000 0.000000 9.017652 3.643802 -1.442612 65.295508 -0.152579 -10.599883 13.882858 51.956151 5.850439 0.000000 0.000000 0.000000 
0.056793 0.948689 0.009958 -2.890782 -2.068734 7.292930 11.567026 -0.315168 4.503769 -8.780940 0.591958 -9.629829 12.022029 22.569059 23.460249 0.000000 0.000000 0.000000 -2.182946 0.885509 -9.530053 0.790331 -0.072766 0.161180 -0.539125 -6.221571 11.808269 0.000000 0.000000 0.000000 -1.750916 -0.163970 8.527923 8.849099 -1.315279 -25.477851 -4.317798 -16.840850 28.239098 -3.395071 0.555876 -27.187770 0.000000 0.000000 0.000000 -20.822116 -4.522872 6.358734 -54.976879 -27.984011 4.020805 -0.548202 -53.105718 6.601830 0.000000 0.000000 0.000000 9.185257 4.276782 -1.215617 64.874719 1.318760 -9.604398 10.722156 49.404021 4.169441 0.000000 0.000000 0.000000 
0.057417 0.948783 0.009015 -3.080965 -1.988257 7.061856 12.061558 -0.346099 4.844807 -9.318652 0.595040 -9.898133 11.918823 22.451959 23.434980 0.000000 0.000000 0.000000 -2.085265 0.847597 -9.056687 0.939430 -0.103386 -0.318055 -0.500389 -6.208777 12.035950 0.000000 0.000000 0.000000 -1.763941 -0.167824 8.649184 8.558360 -1.282839 -25.214755 -3.970606 -16.879641 27.981682 -3.630941 0.701343 -27.497247 0.000000 0.000000 0.000000 -20.911722 -4.969981 6.649497 -55.309928 -29.075082 4.655076 -1.047204 -55.622892 7.418420 0.000000 0.000000 0.000000 9.220997 4.931107 -0.948100 64.473431 2.867630 -8.622830 7.889346 47.280394 2.818620 0.000000 0.000000 0.000000 
